<svg width="180" height="180" viewBox="0 0 180 180" fill="none" xmlns="http://www.w3.org/2000/svg">
<path d="M20 90C40 50 63.3333 50 90 90C116.667 130 140 130 160 90" stroke="#0A0A0A" stroke-width="1.5"/>
<path opacity="0.3" d="M20 90C40 130 63.3333 130 90 90C116.667 50 140 50 160 90" stroke="#0A0A0A" stroke-width="1.5"/>
<path d="M14 90C14 93.3115 16.6885 96 20 96C23.3115 96 26 93.3115 26 90C26 86.6885 23.3115 84 20 84C16.6885 84 14 86.6885 14 90Z" fill="#F3F3F3"/>
<path d="M14 90C14 93.3115 16.6885 96 20 96C23.3115 96 26 93.3115 26 90C26 86.6885 23.3115 84 20 84C16.6885 84 14 86.6885 14 90V90" stroke="#0A0A0A" stroke-width="1.5"/>
<path d="M50 60C50 62.7596 52.2404 65 55 65C57.7596 65 60 62.7596 60 60C60 57.2404 57.7596 55 55 55C52.2404 55 50 57.2404 50 60Z" fill="#F3F3F3"/>
<path d="M50 60C50 62.7596 52.2404 65 55 65C57.7596 65 60 62.7596 60 60C60 57.2404 57.7596 55 55 55C52.2404 55 50 57.2404 50 60V60" stroke="#0A0A0A" stroke-width="1.5"/>
<path d="M85 90C85 92.7596 87.2404 95 90 95C92.7596 95 95 92.7596 95 90C95 87.2404 92.7596 85 90 85C87.2404 85 85 87.2404 85 90Z" fill="#F3F3F3"/>
<path d="M85 90C85 92.7596 87.2404 95 90 95C92.7596 95 95 92.7596 95 90C95 87.2404 92.7596 85 90 85C87.2404 85 85 87.2404 85 90V90" stroke="#0A0A0A" stroke-width="1.5"/>
<path d="M120 60C120 62.7596 122.24 65 125 65C127.76 65 130 62.7596 130 60C130 57.2404 127.76 55 125 55C122.24 55 120 57.2404 120 60Z" fill="#F3F3F3"/>
<path d="M120 60C120 62.7596 122.24 65 125 65C127.76 65 130 62.7596 130 60C130 57.2404 127.76 55 125 55C122.24 55 120 57.2404 120 60V60" stroke="#0A0A0A" stroke-width="1.5"/>
<path d="M154 90C154 93.3115 156.689 96 160 96C163.311 96 166 93.3115 166 90C166 86.6885 163.311 84 160 84C156.689 84 154 86.6885 154 90Z" fill="#EA2C00"/>
</svg>
